<svg xmlns="http://www.w3.org/2000/svg"
 width="807.000000pt" height="606.000000pt" viewBox="0 0 807.000000 606.000000"
 preserveAspectRatio="xMidYMid meet">
<g transform="translate(0.000000,606.000000) scale(0.100000,-0.100000)"
fill="#000000" stroke="none">
<path d="M6450 6050 c-8 -5 -28 -10 -44 -10 -30 0 -126 -47 -126 -62 0 -4 -7
-8 -15 -8 -8 0 -24 -8 -36 -17 -44 -37 -79 -71 -79 -78 0 -4 -12 -19 -28 -33
-30 -30 -82 -106 -82 -122 0 -5 -4 -10 -10 -10 -5 0 -10 -11 -10 -25 0 -14 -4
-25 -10 -25 -5 0 -10 -10 -10 -23 0 -13 -5 -28 -11 -34 -14 -14 -13 -256 1
-282 5 -11 10 -31 10 -45 0 -14 5 -28 10 -31 6 -3 10 -15 10 -25 0 -18 32 -80
55 -107 24 -29 31 -40 51 -83 68 -141 76 -164 69 -200 -3 -19 -7 -46 -9 -60
-2 -14 -7 -34 -12 -45 -11 -29 -93 -104 -134 -123 -19 -9 -37 -18 -40 -21 -3
-4 -23 -15 -45 -27 -90 -48 -110 -59 -113 -66 -2 -5 -9 -8 -16 -8 -7 0 -21 -8
-32 -17 -10 -10 -36 -31 -57 -47 -21 -15 -41 -35 -44 -44 -4 -8 -18 -27 -33
-41 -15 -14 -40 -53 -55 -86 -16 -33 -31 -62 -34 -65 -3 -3 -13 -18 -21 -35
-8 -16 -18 -32 -21 -35 -3 -3 -23 -39 -45 -80 -21 -41 -42 -76 -46 -78 -5 -2
-8 -12 -8 -23 0 -10 -4 -19 -10 -19 -5 0 -10 -8 -10 -17 0 -10 -9 -29 -20 -43
-11 -14 -20 -30 -20 -35 0 -6 -11 -22 -25 -37 -14 -15 -25 -34 -25 -42 0 -8
-3 -16 -7 -18 -10 -4 -37 -53 -111 -203 -90 -181 -88 -174 -64 -294 11 -57 24
-106 27 -109 16 -16 251 -14 330 3 131 27 172 41 315 107 l75 35 3 -33 c2 -19
7 -34 12 -34 5 0 11 -64 13 -142 2 -79 8 -158 12 -175 4 -20 3 -33 -3 -33 -5
0 -13 -24 -16 -52 -4 -29 -10 -70 -13 -91 -6 -46 9 -68 24 -35 6 13 16 48 22
78 13 62 27 90 39 75 17 -23 122 -47 282 -64 113 -13 514 5 650 27 63 11 138
23 167 27 l52 7 16 -37 c8 -21 15 -47 15 -59 0 -12 4 -26 9 -31 18 -20 39
-331 23 -347 -6 -6 -23 3 -45 26 -38 38 -52 34 -59 -14 l-3 -25 -505 0 -505 0
-1 25 c-1 14 -2 31 -3 37 0 7 -21 -6 -46 -29 -39 -36 -43 -44 -33 -62 13 -24
26 -36 55 -53 23 -13 33 -2 33 38 0 14 7 19 28 19 23 0 862 0 960 0 29 0 32
-3 32 -28 0 -42 10 -45 42 -12 15 17 30 30 33 30 14 0 3 -101 -15 -138 -24
-49 -93 -122 -115 -122 -8 0 -23 -4 -33 -9 -39 -21 -102 -33 -138 -28 -131 21
-317 37 -364 33 -30 -2 -86 -10 -125 -17 -103 -19 -276 -11 -291 12 -3 5 -18
9 -34 9 -37 0 -117 75 -126 118 -4 18 -10 32 -14 32 -17 0 -21 88 -16 334 1
43 -18 60 -28 24 -11 -41 -6 -222 8 -287 8 -35 12 -79 9 -96 -3 -19 0 -35 6
-39 6 -4 11 -16 11 -26 0 -10 5 -20 11 -22 6 -2 14 -64 20 -158 11 -186 28
-379 41 -475 14 -106 22 -564 9 -589 -47 -95 -61 -227 -36 -331 9 -38 16 -92
16 -119 -1 -30 4 -58 14 -73 16 -24 19 -25 103 -18 48 3 152 9 231 13 121 6
146 10 155 24 8 13 8 23 -2 38 -6 11 -12 27 -12 35 0 8 -4 15 -10 15 -5 0 -10
7 -10 15 0 8 5 15 10 15 6 0 10 11 10 24 0 14 5 28 10 31 6 3 10 46 10 95 0
49 -4 92 -10 95 -5 3 -10 15 -10 25 0 11 -11 45 -25 76 -21 48 -25 72 -25 153
0 53 5 134 10 181 12 98 33 528 35 705 1 67 5 126 9 133 8 13 113 17 133 4 8
-5 13 -52 16 -137 2 -85 10 -151 22 -190 9 -33 21 -105 26 -160 12 -134 26
-247 40 -320 18 -93 23 -332 7 -369 -8 -19 -12 -79 -13 -162 0 -126 2 -140 36
-206 5 -10 9 -30 9 -45 0 -56 0 -56 221 -48 268 9 296 18 262 93 -12 28 -17
75 -18 195 -2 100 -7 163 -14 170 -6 6 -11 23 -11 38 0 15 -5 29 -10 31 -16 5
-30 271 -20 353 5 39 9 244 10 457 0 247 4 389 10 393 6 3 10 15 10 26 0 10 5
19 10 19 6 0 10 11 10 24 0 14 4 27 8 30 11 7 24 176 22 286 -2 114 -25 276
-41 286 -5 3 -9 16 -9 30 0 13 -5 33 -12 44 -9 15 -9 25 1 47 33 70 40 99 48
221 l5 82 32 0 c18 0 36 -4 41 -9 6 -5 37 -12 70 -14 33 -3 95 -11 139 -17 75
-11 195 -5 294 16 47 9 62 45 62 146 0 68 -6 102 -35 188 -19 58 -40 113 -45
122 -6 10 -10 27 -10 38 0 11 -4 28 -9 38 -10 19 -52 119 -71 172 -7 19 -17
39 -22 44 -4 6 -8 20 -8 33 0 13 -4 23 -9 23 -5 0 -11 12 -14 28 -2 15 -16 56
-30 92 -13 36 -33 88 -43 115 -11 28 -22 52 -26 53 -5 2 -8 19 -8 38 0 19 -4
34 -9 34 -5 0 -12 9 -16 20 -8 24 -90 110 -106 110 -6 0 -19 8 -28 18 -16 17
-163 92 -182 92 -5 0 -9 5 -9 10 0 6 -7 10 -15 10 -8 0 -29 8 -47 18 -18 11
-49 24 -69 31 -20 6 -47 23 -59 36 -13 14 -28 25 -34 25 -22 0 -65 84 -67 130
-5 118 -2 157 16 195 10 22 22 42 25 45 16 12 76 109 89 143 8 20 18 37 23 37
4 0 8 18 8 39 0 22 5 43 10 46 6 3 10 48 10 101 0 56 -4 94 -10 94 -5 0 -10
13 -10 29 0 17 -3 32 -8 35 -4 2 -16 34 -27 70 -11 36 -23 66 -27 66 -5 0 -8
6 -8 13 0 7 -8 22 -17 33 -10 10 -25 32 -33 49 -17 34 -34 55 -107 132 -58 61
-125 93 -208 100 -27 3 -54 9 -59 14 -13 12 -87 11 -106 -1z m137 -39 c35 -5
77 -17 94 -25 18 -9 38 -16 46 -16 7 0 13 -4 13 -10 0 -5 5 -10 10 -10 10 0
80 -67 80 -76 0 -2 12 -17 28 -33 15 -16 36 -46 47 -68 11 -21 28 -47 38 -57
9 -11 17 -27 17 -36 0 -9 4 -20 9 -25 5 -6 21 -50 36 -98 22 -73 26 -102 22
-170 -6 -120 -33 -200 -88 -260 -9 -9 -22 -30 -30 -45 -17 -32 -34 -52 -46
-52 -5 0 -15 -15 -22 -33 -10 -25 -26 -39 -67 -57 -30 -14 -54 -28 -54 -31 0
-3 -11 -11 -25 -17 -28 -13 -31 -29 -12 -56 12 -16 15 -16 28 -4 8 8 26 15 39
14 20 -1 26 4 28 26 3 22 6 26 20 18 9 -5 25 -11 35 -14 15 -5 17 -15 15 -73
l-3 -68 -60 -14 c-88 -20 -482 -27 -540 -10 -25 7 -45 16 -45 19 0 4 9 25 20
48 21 44 26 97 10 107 -15 9 -2 25 15 18 8 -3 15 -17 15 -32 1 -34 22 -61 49
-61 11 0 21 -4 21 -10 0 -5 17 -10 38 -10 32 0 41 5 50 25 6 14 18 25 27 25 9
0 15 -9 15 -25 0 -23 4 -25 44 -25 46 0 44 -1 65 64 9 26 8 28 -12 21 -43 -14
-97 -17 -97 -6 0 12 -32 14 -67 5 -14 -4 -23 -14 -23 -25 0 -11 -4 -19 -10
-19 -5 0 -10 9 -10 20 0 15 -9 22 -31 27 -17 3 -33 13 -37 22 -10 28 -32 43
-53 38 -15 -4 -23 1 -31 21 -27 69 -74 159 -90 173 -20 18 -68 121 -68 144 0
8 -4 15 -10 15 -6 0 -10 62 -10 165 0 103 4 165 10 165 6 0 10 6 10 14 0 8 16
42 35 76 19 34 35 64 35 66 0 18 135 154 153 154 9 0 17 5 17 10 0 6 7 10 15
10 8 0 15 4 15 8 0 10 58 37 110 51 46 12 91 13 167 2z m314 -1333 c16 -17 26
-48 16 -48 -1 0 -34 -7 -72 -16 -92 -21 -224 -36 -305 -36 -161 0 -370 37
-370 66 0 26 28 39 67 31 94 -19 567 -5 589 18 15 14 57 6 75 -15z m-751 -78
c0 -5 8 -10 18 -10 10 0 22 -4 28 -9 35 -33 550 -51 570 -20 3 5 27 9 54 9 27
0 52 5 55 10 3 6 19 10 36 10 16 0 29 5 29 10 0 16 26 12 65 -10 20 -11 46
-20 59 -20 14 0 26 -3 28 -8 4 -9 201 -102 217 -102 6 0 11 -4 11 -10 0 -5 7
-10 15 -10 8 0 15 -4 15 -10 0 -5 5 -10 11 -10 6 0 27 -16 46 -35 19 -19 38
-35 42 -35 11 0 41 -61 41 -86 0 -13 5 -24 10 -24 6 0 10 -9 10 -20 0 -11 4
-28 9 -38 5 -9 18 -35 29 -57 25 -50 52 -124 52 -147 0 -10 5 -18 10 -18 6 0
10 -11 10 -24 0 -14 5 -28 10 -31 30 -19 -6 -72 -83 -125 -20 -14 -37 -28 -37
-32 0 -5 -4 -8 -9 -8 -9 0 -118 -63 -138 -80 -7 -5 -21 -10 -33 -10 -11 0 -20
-4 -20 -10 0 -5 -11 -10 -23 -10 -38 0 -47 36 -47 192 l0 140 -27 -5 c-19 -3
-31 1 -43 16 -20 24 -40 15 -40 -18 0 -14 -7 -26 -17 -29 -10 -3 -260 -5 -555
-5 l-538 1 0 39 c0 21 -2 39 -5 39 -3 0 -18 -11 -33 -24 -15 -14 -38 -34 -51
-45 l-24 -21 43 -40 c53 -50 70 -51 70 -6 0 22 6 36 16 40 25 10 1077 7 1093
-3 9 -6 12 -19 8 -40 -8 -37 7 -41 34 -9 11 11 21 19 24 17 2 -3 5 -149 7
-324 2 -255 0 -329 -11 -362 -8 -24 -18 -43 -23 -43 -4 0 -8 -9 -8 -20 0 -11
-4 -20 -10 -20 -5 0 -10 -4 -10 -10 0 -5 9 -10 20 -10 17 0 20 -7 20 -49 0
-28 -4 -53 -10 -56 -5 -3 -10 -18 -10 -32 0 -30 -35 -83 -56 -83 -8 0 -14 -4
-14 -10 0 -5 -13 -10 -30 -10 -16 0 -30 -4 -30 -9 0 -5 -33 -12 -72 -15 -40
-3 -113 -10 -163 -16 -49 -5 -182 -12 -295 -16 -173 -5 -218 -3 -290 11 -47
10 -98 19 -115 22 -58 8 -72 13 -93 31 -32 28 -50 80 -52 147 -2 88 -2 93 10
75 8 -13 11 -13 23 0 13 13 9 26 -26 99 -42 86 -44 101 -46 259 -1 44 -5 72
-12 72 -6 0 -10 -22 -9 -57 4 -129 2 -143 -20 -143 -11 0 -20 -4 -20 -8 0 -5
-26 -21 -57 -37 -32 -15 -66 -32 -75 -36 -10 -5 -25 -9 -33 -9 -8 0 -15 -4
-15 -10 0 -5 -13 -10 -29 -10 -17 0 -32 -4 -35 -9 -3 -5 -20 -11 -38 -15 -201
-35 -284 -42 -346 -30 -22 5 -31 13 -35 33 -3 14 -11 49 -17 76 -6 28 -8 68
-5 90 7 45 26 95 37 95 5 0 8 6 8 13 0 15 92 201 102 205 5 2 8 8 8 13 0 19
46 79 60 79 8 0 29 -12 45 -26 17 -14 40 -34 53 -45 12 -10 27 -19 32 -19 6 0
10 -4 10 -9 0 -5 9 -13 20 -16 11 -3 26 -12 33 -18 7 -7 30 -21 52 -32 22 -11
47 -28 56 -37 9 -10 21 -18 28 -18 6 0 11 -4 11 -10 0 -5 7 -10 15 -10 8 0 15
-4 15 -10 0 -16 -43 -100 -52 -100 -4 0 -8 -5 -8 -10 0 -6 -20 -31 -45 -56
-43 -43 -59 -84 -32 -84 16 0 68 57 112 123 19 29 39 57 43 62 4 6 15 25 22
43 8 17 18 32 22 32 5 0 8 9 8 20 0 11 5 20 10 20 6 0 10 7 10 16 0 9 16 31
35 50 29 27 35 41 35 74 0 22 -5 40 -10 40 -6 0 -25 -22 -42 -50 -17 -27 -35
-50 -40 -50 -11 0 -67 30 -84 45 -34 29 -53 44 -82 61 -18 10 -32 22 -32 26 0
4 -7 8 -16 8 -26 0 -134 115 -134 142 0 25 21 78 31 78 3 0 14 20 25 45 10 25
22 45 26 45 4 0 8 9 8 20 0 11 5 20 10 20 6 0 10 5 10 11 0 5 11 27 25 47 14
20 25 45 25 54 0 10 3 18 8 18 4 0 14 15 21 33 17 37 146 167 167 167 8 0 14
4 14 8 0 4 16 14 35 21 19 7 35 17 35 22 0 5 5 9 12 9 17 0 118 53 118 62 0 4
9 8 20 8 11 0 20 4 20 8 0 5 12 13 28 19 36 14 42 15 42 3z m-664 -793 c22
-23 66 -60 99 -82 33 -22 67 -48 76 -57 9 -10 22 -18 28 -18 7 0 18 -6 25 -12
14 -14 53 -44 75 -57 21 -13 5 -41 -24 -41 -14 0 -25 4 -25 8 0 4 -16 14 -35
21 -19 7 -35 16 -35 20 0 4 -25 20 -55 36 -30 15 -55 32 -55 37 0 4 -5 8 -11
8 -5 0 -30 15 -53 33 -24 17 -53 39 -65 46 -11 8 -22 20 -25 26 -5 14 23 75
34 75 4 0 25 -19 46 -43z m2224 -107 c0 -9 4 -20 8 -25 5 -6 15 -30 22 -55 8
-25 17 -49 20 -55 4 -5 10 -21 13 -35 2 -14 19 -71 36 -127 30 -97 31 -105 18
-155 -10 -42 -18 -54 -35 -56 -12 -2 -22 -7 -22 -11 0 -28 -376 -28 -404 0 -6
5 -21 9 -35 9 -13 0 -38 5 -55 11 l-31 11 -2 175 -1 175 24 -23 c13 -12 24
-31 24 -41 0 -10 5 -18 10 -18 6 0 10 -4 10 -10 0 -5 16 -34 35 -64 19 -30 35
-60 35 -66 0 -14 46 -60 60 -60 15 0 12 36 -5 54 -8 8 -15 19 -15 25 0 6 -4
11 -10 11 -5 0 -10 9 -10 20 0 11 -4 20 -8 20 -4 0 -21 25 -37 55 -34 62 -29
85 21 96 50 10 214 108 284 168 23 21 25 21 37 5 7 -10 13 -25 13 -34z m-1650
-1711 c47 -19 77 -22 202 -23 l148 -1 0 -157 c0 -148 -13 -258 -32 -258 -15 0
-8 -61 8 -78 13 -13 15 -29 10 -81 -3 -37 -6 -89 -6 -118 l0 -51 -62 -6 c-118
-12 -241 -17 -263 -12 -25 6 -26 11 -40 216 -3 47 -10 94 -15 105 -9 22 -30
320 -30 423 0 71 1 72 80 41z m1062 -19 c2 -22 2 -187 0 -366 -4 -314 -5 -326
-25 -345 -14 -13 -35 -19 -68 -19 -26 0 -51 -4 -54 -10 -8 -13 -205 -13 -205
0 0 6 -5 10 -11 10 -26 0 -39 30 -39 89 0 33 -4 63 -10 66 -13 8 -13 125 -1
125 9 0 -8 60 -20 70 -14 11 -49 268 -46 333 l2 52 45 -1 c25 -1 94 -5 153 -9
93 -7 117 -5 168 11 32 10 59 22 59 26 0 5 11 8 24 8 21 0 24 -6 28 -40z m-10
-917 c3 -92 9 -157 17 -171 7 -13 11 -32 9 -43 -3 -18 -6 -17 -38 13 -34 32
-89 58 -123 58 -26 0 -97 -24 -97 -32 0 -5 -6 -8 -14 -8 -8 0 -16 -3 -18 -7
-6 -15 -99 -85 -105 -79 -3 3 0 19 6 35 13 30 10 275 -4 336 l-7 30 94 -3 c51
-2 104 1 118 7 14 5 55 10 91 10 l67 1 4 -147z m-737 113 c9 -9 10 -17 4 -23
-7 -7 -9 -71 -7 -167 l3 -157 -30 7 c-16 3 -34 10 -39 15 -6 5 -18 9 -28 9
-10 0 -18 5 -18 10 0 6 -32 10 -75 10 -43 0 -75 -4 -75 -10 0 -5 -5 -10 -11
-10 -6 0 -26 -12 -45 -26 -33 -25 -34 -25 -34 -6 0 12 5 24 10 27 6 4 10 70
10 165 l0 159 138 4 c75 1 147 4 160 5 13 1 30 -4 37 -12z m647 -308 c12 -7
33 -23 47 -35 14 -13 29 -23 33 -23 5 0 8 -9 8 -20 0 -13 -7 -20 -19 -20 -11
0 -21 -4 -23 -9 -5 -14 -262 -35 -284 -23 -16 9 -15 12 12 38 55 54 139 102
177 103 15 1 37 -5 49 -11z m-742 -49 c30 -11 63 -23 73 -26 9 -3 17 -13 17
-23 0 -33 -100 -62 -200 -59 -80 2 -136 11 -148 24 -8 7 46 63 83 86 39 25
105 24 175 -2z m894 -91 c12 -45 6 -188 -8 -217 -12 -23 -25 -29 -79 -39 -35
-7 -121 -12 -190 -12 l-126 0 -16 30 c-8 16 -15 40 -15 55 0 14 -4 25 -10 25
-6 0 -10 28 -10 64 l0 63 158 6 c142 5 216 18 238 40 16 16 52 6 58 -15z
m-742 -48 c5 -26 4 -81 -2 -130 -12 -92 -24 -110 -71 -110 -15 0 -31 -4 -34
-10 -8 -13 -65 -13 -65 0 0 6 -46 10 -118 10 -113 0 -119 1 -129 23 -17 35
-35 138 -31 182 l3 40 50 -3 c28 -2 75 -8 104 -14 65 -12 142 1 211 38 60 32
73 28 82 -26z"/>
<path d="M6122 5503 c-18 -21 -32 -42 -32 -48 0 -12 67 -75 80 -75 6 0 10 11
10 24 0 14 5 28 10 31 10 6 93 7 498 6 l212 -1 0 -30 c0 -16 5 -30 11 -30 15
0 79 62 79 77 0 18 -69 85 -81 78 -5 -4 -9 -19 -9 -36 l0 -29 -366 0 -366 0 6
35 c9 47 -10 46 -52 -2z"/>
<path d="M6544 4438 c-11 -13 -21 -36 -22 -53 -1 -16 -7 -31 -12 -33 -19 -7
-10 -39 14 -51 27 -15 54 -9 87 20 18 16 21 24 13 36 -8 12 -7 25 4 45 11 23
11 32 2 43 -19 22 -64 18 -86 -7z"/>
<path d="M5815 4273 c-16 -18 -31 -37 -33 -42 -4 -13 58 -81 74 -81 8 0 14 10
14 25 0 17 7 26 23 30 12 3 339 4 727 3 l705 -3 3 -27 c4 -36 22 -35 61 1 40
37 39 59 -2 99 -43 41 -57 41 -57 -3 l0 -35 -650 0 c-357 -1 -684 -1 -725 -1
-41 0 -79 0 -85 1 -5 0 -7 13 -4 29 9 42 -16 44 -51 4z"/>
<path d="M6574 3788 c-22 -10 -44 -47 -44 -72 0 -19 34 -46 58 -46 26 0 27 -6
6 -27 -13 -14 -20 -14 -36 -4 -26 16 -35 7 -14 -14 14 -14 20 -15 46 -3 17 7
30 16 30 20 0 3 6 13 14 21 20 19 27 99 11 120 -14 19 -39 21 -71 5z"/>
<path d="M60 5990 c0 -15 7 -20 25 -20 14 0 25 -2 25 -5 0 -3 -11 -18 -25 -33
-33 -36 -32 -42 10 -42 l35 0 0 -1810 0 -1810 -35 0 c-19 0 -35 -4 -35 -10 0
-11 67 -80 78 -80 10 0 82 73 82 83 0 4 -16 7 -35 7 l-35 0 0 1804 0 1805 32
3 c17 2 33 8 35 13 2 6 -19 34 -47 63 -38 40 -57 52 -80 52 -23 0 -30 -4 -30
-20z"/>
<path d="M2805 5960 c-3 -5 -24 -10 -46 -10 -21 0 -39 -4 -39 -10 0 -5 -9 -10
-19 -10 -18 0 -68 -19 -151 -58 -19 -9 -42 -24 -51 -34 -9 -10 -21 -18 -27
-18 -18 0 -132 -116 -132 -134 0 -9 -3 -16 -7 -16 -11 0 -33 -50 -33 -71 0
-10 -4 -21 -10 -24 -5 -3 -10 -30 -10 -58 0 -66 22 -207 32 -207 4 0 8 -13 8
-30 0 -16 5 -30 10 -30 6 0 10 -8 10 -18 0 -10 4 -22 8 -27 5 -6 17 -37 27
-70 17 -57 22 -70 45 -115 6 -11 10 -29 10 -40 0 -11 5 -20 10 -20 6 0 10 -13
10 -29 0 -16 5 -31 11 -33 16 -5 15 -128 -1 -173 -8 -22 -23 -47 -32 -56 -10
-9 -18 -22 -18 -29 0 -17 -35 -61 -118 -146 -51 -52 -80 -74 -97 -74 -25 0
-35 -23 -15 -35 6 -4 6 -10 0 -18 -43 -51 -52 -65 -57 -90 -3 -15 -10 -30 -14
-33 -5 -3 -9 -14 -9 -25 0 -10 -4 -19 -10 -19 -6 0 -10 -53 -10 -139 0 -83 4
-142 10 -146 6 -3 10 -30 10 -60 0 -33 5 -56 13 -59 10 -5 10 -7 0 -12 -18 -8
-16 -41 1 -47 16 -6 38 -76 38 -117 0 -14 7 -68 15 -120 9 -52 18 -117 20
-145 3 -27 9 -54 14 -59 5 -6 9 -34 9 -62 0 -29 5 -56 10 -59 16 -10 1 -25
-26 -25 -34 0 -31 -28 4 -32 23 -3 27 -8 30 -40 2 -22 -1 -38 -7 -38 -6 0 -11
-15 -11 -34 0 -19 -4 -38 -10 -41 -6 -3 -10 -21 -10 -39 0 -17 -4 -36 -9 -42
-5 -5 -11 -27 -14 -49 -2 -22 -10 -80 -17 -130 -14 -99 -8 -250 11 -305 27
-78 41 -99 90 -141 65 -55 122 -75 240 -83 112 -8 157 -15 165 -27 7 -12 54
-11 54 1 0 6 11 10 25 10 14 0 25 -4 25 -10 0 -5 13 -10 29 -10 16 0 32 -6 35
-12 5 -10 7 -10 12 0 7 14 70 16 79 2 3 -5 32 -10 64 -10 31 0 61 -4 67 -9 5
-5 38 -11 74 -14 131 -10 316 -28 338 -33 21 -4 32 -34 12 -34 -5 0 -10 -9
-10 -19 0 -11 -4 -23 -10 -26 -5 -3 -10 -16 -11 -28 l0 -22 -9 23 c-6 15 -18
22 -35 22 -21 0 -25 -5 -25 -30 0 -25 4 -30 25 -30 29 0 32 -21 14 -100 -13
-58 -32 -295 -31 -385 1 -38 4 -141 8 -228 4 -112 3 -162 -5 -170 -6 -6 -11
-21 -11 -33 0 -13 -5 -26 -10 -29 -6 -3 -10 -17 -10 -30 0 -13 -4 -26 -9 -29
-22 -14 -39 -233 -21 -276 6 -15 11 -47 12 -70 1 -85 15 -89 334 -90 148 0
301 -5 339 -10 95 -13 212 -12 297 1 73 11 98 25 98 53 0 14 19 16 132 16 77
0 145 5 165 12 30 11 33 15 33 55 0 24 -4 43 -10 43 -5 0 -10 8 -10 19 0 24
-79 91 -107 91 -13 0 -23 5 -23 10 0 6 -8 10 -17 10 -10 0 -31 12 -48 26 -16
14 -40 34 -53 45 -12 10 -25 19 -27 19 -3 0 -11 5 -18 10 -25 21 -88 60 -97
60 -6 0 -10 5 -10 10 0 6 -8 10 -18 10 -10 0 -24 9 -32 20 -8 11 -19 20 -26
20 -30 0 -34 49 -39 420 -5 444 -13 630 -26 630 -14 0 -11 26 9 62 35 66 78
242 68 282 -6 23 -157 180 -193 199 -10 6 -41 35 -70 64 -29 29 -57 53 -63 53
-5 0 -10 3 -10 8 0 4 -17 18 -38 32 -35 24 -42 29 -76 58 -8 6 -18 12 -21 12
-3 0 -15 9 -27 20 -11 10 -37 27 -57 36 -20 9 -90 43 -156 74 -66 32 -138 63
-161 69 -51 14 -94 60 -94 101 0 25 4 30 25 30 14 0 25 -4 25 -8 0 -5 28 -21
63 -37 34 -16 64 -32 67 -36 3 -4 34 -8 70 -9 100 -4 110 -3 110 20 0 11 9 25
20 32 11 7 20 23 20 35 0 22 4 23 75 23 43 0 75 4 75 10 0 22 61 10 90 -18 16
-16 48 -37 70 -47 22 -10 40 -22 40 -27 0 -4 17 -8 38 -8 21 0 43 -5 50 -12
15 -15 62 8 62 32 0 9 11 22 25 28 14 7 25 20 25 31 0 30 11 51 26 51 26 0 54
42 54 83 0 21 7 45 15 54 24 23 -2 82 -37 83 -18 1 -43 21 -57 48 -6 12 -20
22 -31 22 -10 0 -22 5 -25 10 -3 6 -28 10 -56 10 -27 0 -49 -4 -49 -10 0 -5
-22 -10 -49 -10 -28 0 -53 5 -56 10 -3 6 -24 10 -45 10 -21 0 -41 4 -44 9 -3
5 -20 11 -38 14 -18 3 -54 11 -80 16 -115 26 -150 30 -263 31 -66 0 -125 4
-130 8 -6 4 -11 73 -12 166 -1 88 -7 183 -13 210 -23 101 -44 172 -62 204 -10
18 -18 39 -18 47 0 8 -4 15 -10 15 -5 0 -10 6 -10 13 0 39 -103 187 -130 187
-14 0 -50 38 -50 53 0 5 -13 22 -30 37 -24 23 -30 36 -30 70 l0 42 59 -7 c75
-9 135 18 144 63 3 16 13 37 22 45 8 9 15 31 15 49 0 22 7 37 20 46 11 7 20
22 20 35 0 12 11 31 26 42 52 39 64 53 64 77 0 13 -5 29 -11 35 -7 7 -8 46 -4
114 14 256 16 372 6 382 -6 6 -11 35 -11 64 0 29 -4 53 -10 53 -5 0 -10 8 -10
18 0 34 -37 114 -75 162 -43 54 -121 110 -154 110 -12 0 -21 5 -21 10 0 6 -22
10 -50 10 -27 0 -50 5 -50 10 0 6 -35 10 -84 10 -47 0 -88 -4 -91 -10z m224
-45 c41 -9 83 -21 93 -26 51 -27 138 -115 138 -139 0 -10 4 -20 8 -22 11 -4
51 -131 45 -141 -3 -5 -10 -4 -16 2 -19 19 -145 13 -211 -10 -33 -12 -66 -28
-74 -35 -7 -8 -17 -14 -21 -14 -9 0 -81 -65 -81 -74 0 -3 -7 -14 -16 -24 -9
-11 -34 -59 -56 -108 -36 -79 -68 -124 -88 -124 -4 0 -13 20 -19 45 -21 82
-115 123 -168 73 -20 -18 -23 -31 -23 -90 0 -39 4 -68 10 -68 6 0 10 -9 10
-20 0 -11 5 -20 10 -20 6 0 10 -6 10 -14 0 -8 10 -31 21 -51 20 -33 20 -39 8
-83 -14 -51 -39 -86 -47 -64 -6 20 -32 14 -41 -10 -9 -23 -9 -23 -20 5 -6 16
-11 34 -11 42 0 8 -4 16 -8 19 -4 3 -14 28 -22 55 -7 28 -17 51 -22 51 -4 0
-8 9 -8 19 0 10 -11 43 -25 73 -14 29 -25 61 -25 71 0 9 -4 17 -10 17 -5 0
-10 11 -10 24 0 14 -4 28 -10 31 -5 3 -10 22 -10 41 0 19 -4 34 -10 34 -6 0
-10 38 -10 95 0 89 2 99 35 161 32 60 66 99 139 162 14 12 31 22 36 22 6 0 10
5 10 10 0 6 9 10 20 10 11 0 20 3 20 8 0 12 80 43 148 57 35 8 67 16 70 19 11
12 159 6 231 -9z m211 -345 c0 -5 8 -10 19 -10 10 0 29 -10 43 -23 34 -32 41
-99 27 -255 -6 -70 -8 -167 -5 -217 l7 -90 -36 -19 c-20 -11 -35 -27 -35 -38
0 -10 -4 -18 -10 -18 -5 0 -10 -8 -10 -19 0 -10 -9 -21 -20 -24 -21 -5 -28
-41 -10 -52 6 -4 3 -16 -9 -31 -11 -14 -22 -38 -26 -54 -4 -19 -17 -35 -37
-45 -35 -17 -78 -20 -78 -5 0 6 -9 10 -20 10 -11 0 -20 5 -20 10 0 6 -9 10
-20 10 -11 0 -20 5 -20 10 0 6 -9 10 -20 10 -11 0 -45 11 -76 25 -31 14 -63
25 -70 25 -8 0 -14 5 -14 10 0 6 -9 10 -20 10 -11 0 -20 5 -20 10 0 6 -5 10
-11 10 -17 0 -79 72 -79 92 0 10 -4 18 -9 18 -5 0 -11 30 -14 68 -6 91 -16
123 -44 147 -12 11 -23 31 -23 43 0 12 -5 31 -12 42 -10 15 -9 25 2 47 18 34
29 43 54 43 22 0 86 -62 86 -85 0 -8 5 -15 10 -15 6 0 15 -11 21 -24 10 -21
14 -22 40 -12 22 8 37 27 60 76 17 36 35 73 40 82 5 10 9 25 9 33 0 8 5 15 10
15 6 0 10 4 10 10 0 10 27 45 67 86 13 13 40 30 60 39 21 9 53 23 71 31 18 8
45 14 60 14 15 0 34 5 42 10 19 13 30 13 30 0z m-532 -777 c9 -3 26 -14 37
-23 11 -9 44 -25 73 -36 28 -10 52 -22 52 -26 0 -4 14 -8 30 -8 17 0 30 -4 30
-10 0 -5 10 -10 21 -10 20 0 21 -4 15 -47 -3 -27 -12 -68 -20 -93 -8 -25 -18
-58 -23 -74 -11 -39 -26 -42 -57 -12 -14 15 -28 26 -31 26 -3 0 -17 10 -30 23
-40 37 -54 47 -65 47 -5 0 -10 4 -10 8 0 5 -12 15 -27 23 -16 8 -37 22 -48 32
-27 25 -61 39 -115 46 l-45 6 2 45 c3 65 40 140 69 140 13 0 31 11 41 24 l18
23 33 -49 c18 -27 41 -52 50 -55z m-114 -188 c32 -19 62 -35 67 -35 5 0 9 -4
9 -8 0 -4 12 -15 28 -24 15 -10 43 -31 62 -47 19 -17 39 -31 43 -31 5 0 37
-29 72 -65 35 -36 69 -65 75 -65 23 0 7 -27 -30 -47 -49 -29 -55 -29 -88 2
-15 14 -31 25 -37 25 -6 0 -17 9 -25 20 -8 11 -20 20 -27 20 -7 0 -13 3 -13 8
0 4 -23 21 -50 37 -27 17 -50 33 -50 38 0 4 -7 7 -15 7 -8 0 -15 5 -15 10 0 6
-9 10 -20 10 -11 0 -20 4 -20 8 0 4 -25 21 -55 37 -30 17 -55 33 -55 38 0 4
-9 7 -20 7 -13 0 -20 7 -20 18 0 10 9 24 20 32 11 8 20 20 20 27 0 28 83 15
144 -22z m-173 -92 c16 -10 29 -21 29 -25 0 -4 9 -8 20 -8 11 0 20 -4 20 -8 0
-5 16 -14 35 -22 19 -8 35 -17 35 -22 0 -4 5 -8 10 -8 17 0 93 -51 164 -111
17 -14 42 -32 56 -39 14 -7 36 -26 49 -41 29 -35 35 -36 68 -3 30 30 69 47 93
39 11 -3 20 1 24 10 3 8 12 15 19 15 18 0 75 28 83 41 3 5 0 17 -7 25 -6 8 -9
17 -6 20 12 12 46 -33 78 -101 18 -38 37 -71 41 -73 4 -2 8 -15 8 -28 0 -13 4
-24 9 -24 9 0 13 -13 31 -99 10 -45 1 -71 -24 -71 -12 0 -36 45 -36 67 0 23
-23 63 -37 63 -16 0 -16 -10 1 -73 8 -29 20 -87 27 -129 7 -43 17 -78 21 -78
4 0 8 -24 8 -54 0 -30 5 -58 10 -61 6 -4 10 -53 10 -115 l0 -109 -32 5 c-18 3
-42 8 -53 11 -39 11 -172 24 -307 29 -133 6 -138 7 -138 27 2 266 -25 544 -56
574 -20 20 -24 16 -24 -27 0 -22 5 -40 10 -40 6 0 10 -25 10 -56 0 -50 -2 -55
-17 -48 -44 21 -275 -1 -377 -36 -33 -11 -65 -20 -73 -20 -7 0 -13 -4 -13 -10
0 -5 -13 -10 -29 -10 -25 0 -29 4 -35 38 -3 20 -6 87 -6 148 0 98 3 118 26
170 14 32 34 65 45 75 10 9 19 20 19 25 0 8 90 102 162 171 17 16 15 16 49 -4z
m214 -583 c3 -5 15 -10 25 -10 23 0 32 -13 24 -34 -4 -12 -30 -16 -122 -19
-163 -7 -307 -35 -373 -74 -33 -20 -37 -18 -45 25 -6 29 -4 32 20 32 14 0 26
5 26 10 0 6 10 10 23 10 13 0 27 4 32 8 42 37 372 81 390 52z m685 -288 c-7
-78 -6 -97 6 -109 12 -13 16 -12 29 0 18 18 145 32 207 23 24 -4 69 -9 101
-12 31 -3 57 -10 57 -15 0 -5 15 -9 34 -9 19 0 37 -4 40 -9 3 -5 23 -11 43
-14 21 -2 74 -14 117 -26 76 -20 116 -20 116 0 0 5 21 9 48 8 38 -1 42 -2 21
-8 -50 -16 -69 -31 -69 -56 0 -18 5 -25 20 -25 13 0 20 7 20 20 0 18 7 20 55
20 30 0 55 -4 55 -8 0 -5 16 -14 35 -22 38 -15 46 -41 20 -66 -9 -10 -13 -24
-9 -39 6 -26 -6 -43 -44 -64 -14 -7 -22 -21 -22 -36 0 -17 -6 -25 -18 -25 -11
0 -22 -12 -30 -34 l-13 -34 -52 14 c-62 16 -96 32 -118 56 -9 10 -19 18 -23
18 -4 0 -16 9 -28 20 -23 21 -88 28 -88 10 0 -5 -20 -10 -45 -10 -45 0 -45 0
-43 33 1 17 13 43 25 57 28 30 29 60 5 86 -21 23 -57 44 -75 44 -8 0 -22 19
-33 43 -18 40 -21 42 -68 45 -28 2 -59 -1 -70 -6 -44 -20 -164 -41 -192 -33
-28 7 -29 9 -36 92 -14 179 -21 240 -29 245 -5 3 -9 16 -9 30 0 17 5 24 20 24
11 0 21 6 21 13 1 6 7 -24 15 -67 10 -58 11 -105 4 -174z m-647 169 c15 -11
17 -37 17 -177 0 -141 2 -164 15 -164 9 0 18 7 21 15 5 12 31 15 144 15 133 0
164 -3 310 -35 164 -35 185 -35 319 -2 56 14 109 23 117 20 8 -3 14 -16 14
-28 0 -23 45 -65 69 -65 6 0 22 -10 36 -22 24 -21 24 -21 5 -38 -11 -10 -20
-25 -20 -34 0 -9 -4 -16 -10 -16 -5 0 -10 -9 -10 -21 0 -22 -22 -49 -39 -49
-6 0 -11 -11 -11 -25 0 -14 -9 -34 -20 -45 -11 -11 -20 -27 -20 -35 0 -22 -99
-10 -177 22 -52 21 -62 29 -65 51 -3 26 -4 27 -63 24 -33 -2 -114 -6 -180 -8
-66 -2 -129 -9 -140 -15 -35 -17 -569 2 -590 22 -5 5 -19 9 -32 9 -16 0 -23 6
-23 20 0 11 -4 20 -10 20 -5 0 -10 6 -10 14 0 8 -9 31 -19 53 -25 50 -71 195
-71 222 0 11 -4 21 -10 21 -5 0 -10 13 -10 29 0 17 -4 33 -10 36 -5 3 -10 17
-10 30 0 13 -4 26 -9 29 -16 10 -20 56 -5 56 8 0 14 5 14 10 0 6 9 10 20 10
11 0 20 5 20 10 0 6 8 10 18 10 10 0 22 4 28 9 5 5 52 14 104 21 52 6 97 13
100 16 11 12 177 -1 193 -15z m-398 -533 c15 -38 31 -68 34 -68 12 0 32 -55
21 -58 -24 -8 -9 -32 20 -32 21 0 30 5 30 16 0 15 12 16 118 9 150 -10 394
-11 593 0 l157 8 -5 -27 c-5 -22 -11 -26 -39 -26 -18 0 -36 -4 -39 -10 -4 -6
-58 -10 -131 -10 -76 0 -124 -4 -124 -10 0 -6 -111 -10 -313 -10 l-313 0 -19
103 c-10 56 -22 106 -26 112 -5 5 -9 27 -9 49 0 49 9 40 45 -46z m964 -230
c47 -17 75 -43 68 -62 -4 -9 -16 -16 -27 -16 -11 0 -20 -4 -20 -9 0 -15 -67
-41 -87 -34 -10 4 -26 15 -35 26 -11 12 -24 17 -34 13 -15 -6 -14 -9 6 -26 13
-11 21 -22 19 -24 -15 -13 -102 -56 -114 -56 -8 0 -15 -4 -15 -10 0 -5 -6 -10
-14 -10 -8 0 -16 -3 -18 -7 -1 -5 -25 -26 -53 -48 -27 -22 -61 -52 -75 -67
-67 -73 -80 -89 -80 -103 0 -8 -4 -15 -8 -15 -11 0 -62 -118 -62 -142 0 -10
-4 -18 -10 -18 -5 0 -10 -20 -10 -44 0 -25 -4 -48 -10 -51 -5 -3 -10 -35 -10
-71 l0 -64 -102 0 c-56 0 -118 5 -137 12 -63 20 -91 33 -91 40 0 5 -7 8 -15 8
-23 0 -92 76 -98 108 -3 15 -13 56 -22 92 -16 64 -16 100 1 253 3 31 10 57 15
57 5 0 9 29 9 65 0 37 4 65 10 65 6 0 10 13 10 29 0 17 5 33 10 36 6 3 10 16
10 28 l0 22 243 -1 c257 -1 661 16 673 29 11 10 33 9 73 -5z m350 -163 c23
-14 49 -25 57 -25 8 0 14 -4 14 -10 0 -5 9 -10 19 -10 11 0 21 -3 23 -8 4 -9
103 -82 112 -82 4 0 17 -10 30 -22 12 -13 35 -32 50 -43 40 -28 76 -64 76 -75
0 -6 5 -10 10 -10 16 0 200 -171 200 -185 0 -4 7 -13 15 -21 11 -12 13 -29 8
-77 -3 -34 -10 -70 -14 -79 -5 -9 -9 -26 -9 -37 0 -12 -4 -21 -10 -21 -5 0
-10 -7 -10 -15 0 -17 -18 -52 -37 -73 -17 -18 -16 -42 1 -42 17 0 24 -91 32
-441 l5 -217 -38 -6 c-21 -4 -67 -11 -103 -16 -36 -5 -80 -12 -98 -16 -39 -8
-97 13 -83 30 5 6 11 31 14 56 11 90 25 168 31 178 10 16 34 178 52 352 3 30
9 57 14 60 24 16 67 147 77 236 6 56 -18 104 -91 175 -16 16 -35 29 -42 29 -8
0 -14 5 -14 10 0 6 -6 10 -14 10 -8 0 -16 3 -18 8 -3 8 -126 82 -137 82 -3 0
-13 9 -21 20 -8 11 -20 20 -27 20 -7 0 -13 5 -13 10 0 6 -9 10 -19 10 -11 0
-21 4 -23 8 -4 10 -107 62 -123 62 -6 0 -20 8 -31 18 -10 10 -47 31 -81 47
-35 16 -63 32 -63 37 0 18 58 61 105 78 73 26 122 24 174 -5z m-406 -23 c15
-17 14 -19 -10 -37 -35 -26 -63 -55 -88 -89 -20 -27 -32 -43 -67 -85 -10 -12
-18 -28 -18 -36 0 -8 -4 -15 -9 -15 -5 0 -35 -53 -66 -117 -72 -151 -73 -152
-81 -192 -19 -97 -33 -108 -116 -95 l-38 7 0 53 c0 51 8 98 33 189 11 40 56
146 67 155 3 3 18 23 35 45 33 45 114 125 126 125 5 0 18 10 31 23 13 12 37
28 53 36 17 7 46 22 65 32 44 23 63 24 83 1z m77 -70 c0 -4 23 -16 51 -27 28
-11 59 -28 69 -37 11 -10 26 -18 34 -18 8 0 17 -4 20 -9 5 -8 64 -37 144 -72
17 -8 32 -17 32 -21 0 -5 7 -8 15 -8 8 0 15 -4 15 -10 0 -5 5 -10 10 -10 9 0
86 -48 125 -77 6 -5 24 -15 40 -23 17 -8 39 -23 49 -32 11 -10 23 -18 27 -18
4 0 25 -17 46 -37 53 -52 65 -95 46 -170 -8 -32 -17 -72 -20 -90 -3 -18 -17
-45 -33 -61 -22 -24 -28 -41 -33 -98 -17 -186 -41 -348 -58 -392 -5 -13 -9
-38 -9 -57 0 -19 -4 -37 -10 -40 -5 -3 -10 -21 -10 -40 0 -47 -8 -64 -41 -80
-56 -29 -318 -7 -345 29 -19 26 3 405 27 464 5 13 9 34 9 47 0 13 5 27 10 30
6 3 10 17 10 31 0 13 5 24 10 24 6 0 10 9 10 19 0 11 4 21 9 23 5 2 12 17 15
34 l7 32 -88 6 c-218 14 -423 36 -423 46 0 5 -21 11 -47 14 -27 2 -64 8 -83
11 l-36 7 10 44 c6 24 14 44 18 44 5 0 8 16 8 35 0 19 5 35 10 35 6 0 10 9 10
19 0 11 20 60 45 109 25 49 45 92 45 96 0 4 9 16 20 28 11 12 20 28 20 35 0 7
4 13 9 13 4 0 21 19 37 43 16 23 42 53 58 67 16 14 34 30 40 37 12 13 76 18
76 5z m250 -1466 c36 -3 89 -8 118 -12 34 -4 58 -2 65 5 6 6 31 11 55 11 43 0
44 -1 38 -27 -4 -16 -13 -84 -21 -153 -7 -69 -14 -126 -14 -127 -1 -2 -21 -3
-45 -3 -25 0 -48 -4 -51 -10 -3 -6 -48 -10 -101 -10 -56 0 -94 4 -94 10 0 6
-6 10 -14 10 -23 0 -27 27 -25 174 1 137 5 169 18 148 3 -6 35 -13 71 -16z
m650 -128 l0 -153 -27 -12 c-15 -7 -35 -13 -45 -13 -10 0 -18 -4 -18 -10 0 -6
-33 -10 -79 -10 -60 0 -80 3 -85 15 -3 8 -11 12 -19 9 -10 -3 -16 15 -25 73
-7 43 -12 89 -12 104 0 14 -4 29 -9 35 -10 9 -14 35 -12 69 1 19 9 20 118 23
65 1 122 7 127 12 6 6 27 10 48 10 l38 0 0 -152z m0 -208 c0 -5 -4 -10 -10
-10 -5 0 -10 -20 -10 -45 0 -38 3 -45 20 -45 11 0 20 -4 20 -10 0 -5 16 -10
35 -10 32 0 35 -2 35 -30 0 -35 28 -51 73 -43 20 4 29 1 34 -13 4 -11 16 -26
26 -35 19 -15 18 -16 -13 -47 l-32 -33 -51 26 c-28 14 -59 25 -69 25 -10 0
-18 5 -18 10 0 6 -10 10 -23 10 -13 0 -39 15 -58 33 -19 17 -47 41 -63 52 -16
11 -34 26 -41 33 -8 6 -18 12 -24 12 -6 0 -11 4 -11 8 0 5 -12 15 -27 23 -16
8 -39 24 -53 37 l-25 22 98 0 c58 0 97 4 97 10 0 6 14 10 30 10 17 0 30 5 30
10 0 6 7 10 15 10 8 0 15 -4 15 -10z m-674 -28 c11 -6 13 -11 5 -16 -6 -4 -11
-18 -11 -32 0 -13 -4 -24 -10 -24 -5 0 -10 -9 -10 -20 0 -11 -4 -20 -10 -20
-5 0 -10 -6 -10 -13 0 -16 -64 -77 -80 -77 -5 0 -10 20 -10 45 0 25 5 45 10
45 6 0 10 11 10 25 0 14 4 33 9 43 5 9 14 29 19 44 10 24 14 26 41 18 16 -4
37 -12 47 -18z m248 -14 c-30 -59 -34 -68 -34 -83 0 -8 5 -15 10 -15 6 0 10
-5 10 -11 0 -21 34 -38 73 -39 46 0 77 -15 77 -37 0 -24 31 -42 71 -43 31 0
38 -4 43 -25 5 -20 13 -25 36 -25 33 0 40 -21 15 -46 -8 -8 -18 -22 -23 -30
-8 -14 -29 -15 -168 -7 l-159 8 -3 28 c-2 15 -7 27 -10 27 -4 0 -16 16 -26 35
-11 19 -23 35 -28 35 -4 0 -8 7 -8 16 0 19 -27 45 -89 85 -25 16 -40 29 -33
29 7 0 12 9 12 20 0 11 4 20 9 20 5 0 12 16 15 35 7 35 7 35 61 35 30 0 57 5
60 10 3 6 29 10 56 10 l50 0 -17 -32z m117 -23 c24 -19 50 -35 57 -35 6 0 12
-4 12 -10 0 -5 5 -10 11 -10 11 0 101 -69 161 -124 32 -29 35 -36 23 -46 -12
-10 -21 -10 -44 0 -17 6 -35 9 -41 5 -6 -4 -15 6 -21 24 -10 29 -14 31 -60 31
-45 0 -49 2 -49 25 0 28 -22 42 -71 49 -94 12 -102 21 -72 88 21 47 38 48 94
3z m-351 -136 c0 -5 5 -9 11 -9 10 0 40 -28 82 -79 9 -12 17 -28 17 -35 0 -8
4 -16 9 -18 5 -1 13 -15 16 -30 l7 -28 -133 0 -134 0 -12 27 c-21 44 -15 71
22 108 19 19 38 35 42 35 5 0 16 11 27 24 16 23 46 26 46 5z m1015 -39 c3 -5
14 -10 25 -10 24 0 95 -38 120 -65 l21 -22 -43 -11 c-24 -6 -94 -13 -155 -16
-90 -4 -113 -3 -113 8 0 18 60 86 76 86 8 0 14 5 14 10 0 6 7 10 15 10 8 0 15
5 15 10 0 6 4 10 9 10 6 0 13 -4 16 -10z m-258 -81 c50 -20 86 -67 76 -96 -7
-19 -283 -18 -283 0 0 16 44 65 85 95 38 27 60 27 122 1z m-302 -129 c50 -6
155 -14 235 -18 95 -5 136 -10 120 -15 -14 -4 -97 -5 -185 -2 -88 3 -288 8
-444 11 -223 4 -286 8 -297 18 -11 11 -11 16 -1 19 22 9 480 -2 572 -13z"/>
<path d="M508 4321 c-33 -33 -36 -51 -9 -51 55 0 51 75 51 -1025 l0 -1014 -42
-3 -41 -3 26 -31 c15 -18 27 -41 27 -53 0 -17 6 -21 35 -21 32 0 35 3 35 28 0
16 8 34 20 42 30 21 25 40 -10 40 l-30 0 0 1015 0 1015 30 0 c40 0 38 18 -5
58 -43 38 -52 39 -87 3z"/>
<path d="M922 3705 c-41 -45 -40 -55 3 -55 l35 0 0 -700 0 -700 -28 0 c-15 0
-34 -6 -40 -12 -19 -19 90 -118 129 -118 22 0 29 5 29 20 0 16 -7 20 -32 20
l-32 0 34 35 c23 23 29 36 19 37 -7 0 -18 2 -24 3 -5 2 -16 3 -22 4 -10 1 -13
149 -13 706 l0 705 29 0 c16 0 31 5 33 11 5 14 -57 79 -74 79 -7 0 -28 -16
-46 -35z"/>
<path d="M1347 3066 c-40 -36 -39 -46 5 -46 l28 0 0 -375 0 -375 -24 0 c-13 0
-29 -6 -35 -14 -10 -12 -5 -22 29 -56 l40 -40 40 36 c22 21 40 41 40 46 0 4
-16 8 -35 8 l-35 0 0 381 c0 379 0 380 20 374 20 -6 50 9 50 25 0 13 -60 70
-73 70 -7 0 -30 -15 -50 -34z"/>
<path d="M6645 2561 c-16 -8 -35 -20 -41 -26 -19 -18 -29 -122 -14 -140 14
-17 60 -21 60 -5 0 6 5 10 11 10 17 0 39 27 39 49 0 11 5 23 10 26 17 11 11
49 -13 75 -21 25 -24 25 -52 11z"/>
<path d="M5505 2024 c-19 -19 -33 -39 -30 -45 4 -5 24 -9 46 -9 l39 0 0 -755
0 -755 -22 -4 c-13 -3 -32 -7 -43 -8 -26 -4 -26 -37 0 -52 11 -6 26 -19 33
-28 19 -26 34 -22 70 15 38 39 39 45 10 49 l-23 3 -3 768 c-2 751 -2 767 17
767 50 0 53 11 12 51 -22 22 -46 39 -55 39 -8 0 -31 -16 -51 -36z"/>
<path d="M7501 1995 l-34 -34 42 -11 41 -11 -2 -752 -3 -752 -29 -3 c-54 -6
-58 -24 -16 -70 21 -23 45 -42 52 -42 12 0 88 74 88 85 0 3 -16 5 -35 5 l-35
0 0 755 c0 415 -1 758 -2 762 -2 4 12 10 30 14 48 10 49 16 12 54 -42 43 -65
43 -109 0z"/>
<path d="M1883 1868 c-13 -6 -23 -15 -23 -21 0 -5 -10 -18 -22 -29 l-22 -19
44 -42 45 -42 3 38 3 37 635 0 634 0 0 -33 c0 -19 3 -37 7 -40 3 -4 26 13 50
38 l43 45 -39 40 c-21 22 -44 40 -50 40 -6 0 -11 -16 -11 -35 l0 -35 -641 0
-641 0 6 35 c4 19 6 35 4 34 -2 0 -13 -5 -25 -11z"/>
<path d="M3400 385 c-7 -14 -17 -25 -22 -25 -18 0 -6 -40 21 -69 38 -40 49
-39 53 7 l3 37 425 0 425 0 1 -32 c0 -47 10 -50 44 -13 36 39 37 56 5 93 -31
35 -59 37 -53 2 l5 -25 -434 0 -435 0 6 25 c5 20 3 25 -12 25 -10 0 -25 -11
-32 -25z"/>
<path d="M3897 236 c-22 -21 -47 -79 -47 -112 0 -19 35 -44 62 -44 27 0 68 37
68 62 0 35 -12 48 -46 48 -35 0 -44 16 -22 38 17 17 36 15 56 -4 20 -20 30 -1
12 21 -18 22 -54 18 -83 -9z"/>
</g>
</svg>
